<svg xmlns="http://www.w3.org/2000/svg" version="1.1" xmlns:xlink="http://www.w3.org/1999/xlink" xmlns:svgjs="http://svgjs.dev/svgjs" width="90" height="30" viewBox="0 0 1000 330"><g transform="matrix(1,0,0,1,-0.6060580950969552,0.3740891752732125)"><svg viewBox="0 0 396 131" data-background-color="#010536" preserveAspectRatio="xMidYMid meet" height="330" width="1000" xmlns="http://www.w3.org/2000/svg" xmlns:xlink="http://www.w3.org/1999/xlink"><g id="tight-bounds" transform="matrix(1,0,0,1,0.23999931639013994,-0.1485020665478487)"><svg viewBox="0 0 395.52 131.29700164744642" height="131.29700164744642" width="395.52"><g><svg viewBox="0 0 395.52 131.29700164744642" height="131.29700164744642" width="395.52"><g><svg viewBox="0 0 395.52 131.29700164744642" height="131.29700164744642" width="395.52"><g id="textblocktransform"><svg viewBox="0 0 395.52 131.29700164744642" height="131.29700164744642" width="395.52" id="textblock"><g><svg viewBox="0 0 395.52 131.29700164744642" height="131.29700164744642" width="395.52"><g transform="matrix(1,0,0,1,0,0)"><svg width="395.52" viewBox="2.1500000953674316 -35 121.38999938964844 40.29999923706055" height="131.29700164744642" data-palette-color="#fbfbf8"><path d="M20.65-30.65L13.9-30.65 13.9-4.35 20.65-4.35 20.65 0 2.15 0 2.15-4.35 8.9-4.35 8.9-30.65 2.15-30.65 2.15-35 20.65-35 20.65-30.65ZM31.9-4.35L54.45-4.35 54.45 0 25.2 0 25.2-3.1 35.25-15.75 28.2-15.75 28.2-19.9 38.55-19.9 47.05-30.65 25.4-30.65 25.4-35 53.7-35 53.7-31.95 44.1-19.8 50.6-19.8 50.6-15.65 40.8-15.65 31.9-4.35ZM65.25-4.35L87.8-4.35 87.8 0 58.55 0 58.55-3.1 68.59-15.75 61.55-15.75 61.55-19.9 71.9-19.9 80.4-30.65 58.75-30.65 58.75-35 87.05-35 87.05-31.95 77.45-19.8 83.95-19.8 83.95-15.65 74.15-15.65 65.25-4.35ZM118.59-35L123.54-35 123.54-10.4Q123.54-2.8 119.49 1.25 115.44 5.3 108.29 5.3L108.29 5.3Q103.99 5.3 100.47 3.98 96.94 2.65 94.54 0.2L94.54 0.2 96.69-3.7Q101.29 0.8 108.29 0.8L108.29 0.8Q118.59 0.8 118.59-10.2L118.59-10.2 118.59-13.75Q115.09-8.65 107.74-8.65L107.74-8.65Q101.14-8.65 97.49-12.45 93.84-16.25 93.84-23.3L93.84-23.3 93.84-35 98.84-35 98.84-23.5Q98.84-18.4 101.34-15.75 103.84-13.1 108.29-13.1L108.29-13.1Q113.09-13.1 115.84-15.9 118.59-18.7 118.59-24.25L118.59-24.25 118.59-35Z" opacity="1" transform="matrix(1,0,0,1,0,0)" fill="#fbfbf8" class="undefined-text-0" data-fill-palette-color="primary" id="text-0"></path></svg></g></svg></g></svg></g></svg></g><g></g></svg></g><defs></defs></svg><rect width="395.52" height="131.29700164744642" fill="none" stroke="none" visibility="hidden"></rect></g></svg></g></svg>